<?xml version="1.0" encoding="UTF-8" standalone="no"?>
<!DOCTYPE svg PUBLIC "-//W3C//DTD SVG 1.1//EN" "http://www.w3.org/Graphics/SVG/1.1/DTD/svg11.dtd">
<!-- 由 Microsoft Visio, SVG Export 生成 logo.svg brain-fill -->
<svg xmlns="http://www.w3.org/2000/svg" xmlns:xlink="http://www.w3.org/1999/xlink" xmlns:ev="http://www.w3.org/2001/xml-events"
		xmlns:v="http://schemas.microsoft.com/visio/2003/SVGExtensions/" width="2.08333in" height="2.08333in" viewBox="0 0 150 150"
		xml:space="preserve" color-interpolation-filters="sRGB" class="st4">
	<v:documentProperties v:langID="2052" v:viewMarkup="false"/>

	<style type="text/css">
	<![CDATA[
		.st1 {fill:#0070c0;stroke:none;stroke-linecap:butt;stroke-width:0.146484}
		.st2 {stroke:#ffffff;stroke-linecap:round;stroke-linejoin:round;stroke-width:4.5}
		.st3 {fill:#0070c0;stroke:#ffffff;stroke-linecap:round;stroke-linejoin:round;stroke-width:4.5}
		.st4 {fill:none;fill-rule:evenodd;font-size:12px;overflow:visible;stroke-linecap:square;stroke-miterlimit:3}
	]]>
	</style>

	<g v:mID="0" v:index="1" v:groupContext="foregroundPage">
		<title>brain-fill</title>
		<v:pageProperties v:drawingScale="1" v:pageScale="1" v:drawingUnits="19" v:shadowOffsetX="9" v:shadowOffsetY="-9"/>
		<g id="shape1-1" v:mID="1" v:groupContext="shape" transform="translate(8.20294,-17.5781)">
			<title>工作表.1</title>
			<path d="M131.91 77.51 C131.15 72.55 128.7 68.35 124.72 65.68 C122.83 64.54 122.08 62.63 121.13 60.34 L120.75 59.38 C117.92
						 53.09 112.81 48.7 106 46.98 C104.68 46.6 103.73 46.03 102.79 44.7 C98.82 39.73 93.14 37.44 86.52 38.21 C85.2
						 38.4 84.82 38.21 84.44 38.02 C81.98 36.49 79.52 35.92 77.07 35.35 L76.12 35.16 L71.96 35.16 L71.39 35.35
						 L69.69 35.92 C68.37 36.3 66.85 36.68 65.34 37.44 L64.96 37.26 C56.26 34.58 48.32 36.49 41.32 42.6 L41.13
						 42.79 C35.08 41.83 29.41 44.12 24.87 49.27 C24.68 49.65 24.49 49.65 24.3 49.65 C16.17 51.18 10.5 56.14 8.04
						 64.34 C7.28 66.82 6.34 68.54 5.01 70.26 C3.12 72.74 1.8 75.6 1.04 78.84 C1.04 79.22 0.85 79.41 0.85 79.8
						 C0.66 80.37 0.47 81.13 0.28 81.89 A24.5332 24.5332 -180 0 0 0.28 89.34 C0.28 89.91 0.47 90.48 0.66 90.86
						 C0.66 91.05 0.66 91.05 0.85 91.24 C3.69 102.69 11.06 109.75 22.22 112.04 C24.11 112.42 26 112.42 27.71 112.42
						 L30.16 112.42 C33.19 112.61 33.57 112.99 34.14 114.13 C34.7 115.47 35.46 116.62 36.22 117.38 L36.41 117.57
						 C41.32 123.67 48.32 126.92 56.83 126.92 C63.45 126.92 71.2 133.78 72.91 139.32 C73.28 140.46 73.28 141.8
						 73.47 143.13 C73.47 144.66 73.66 146.38 74.23 148.09 L74.8 150 L97.68 150 L97.3 146.95 C97.11 145.99 97.11
						 145.04 96.92 144.28 L96.92 143.9 C96.73 141.8 96.36 139.32 95.98 137.03 C106.19 136.07 113.57 130.54 118.11
						 121 C119.24 118.71 119.81 116.04 120.19 112.99 L120.19 112.8 C126.81 109.37 130.59 104.02 131.34 97.73 C132.67
						 90.48 132.67 83.8 131.91 77.51 Z" class="st1"/>
		</g>
		<g id="group18-3" transform="translate(40.5,-53.1667)" v:mID="18" v:groupContext="group">
			<title>工作表.18</title>
			<g id="shape14-4" v:mID="14" v:groupContext="shape" transform="translate(22.5,-12.9167)">
				<title>工作表.14</title>
				<path d="M0 108.08 L18.67 108.08 A4.5 4.5 0 0 1 23.17 112.58 L23.17 145.5 A4.5 4.5 0 0 1 18.67 150 L12 150"
						class="st2"/>
			</g>
			<g id="shape15-7" v:mID="15" v:groupContext="shape">
				<title>工作表.15</title>
				<path d="M0 122.17 L28.42 122.17 A4.5 4.5 0 0 1 32.92 126.67 L32.92 150" class="st2"/>
			</g>
			<g id="shape16-10" v:mID="16" v:groupContext="shape" transform="translate(45.6667,-37.6667)">
				<title>工作表.16</title>
				<path d="M0 150 L20.92 150" class="st2"/>
			</g>
		</g>
		<g id="group17-13" transform="translate(33.3984,-73.8984)" v:mID="17" v:groupContext="group">
			<title>工作表.17</title>
			<g id="shape2-14" v:mID="2" v:groupContext="shape" transform="translate(22.1484,-27)">
				<title>工作表.2</title>
				<ellipse cx="7.10156" cy="142.898" rx="7.10156" ry="7.10156" class="st3"/>
			</g>
			<g id="shape5-16" v:mID="5" v:groupContext="shape" transform="translate(67.5,-9.8352)">
				<title>工作表.5</title>
				<ellipse cx="7.10156" cy="142.898" rx="7.10156" ry="7.10156" class="st3"/>
			</g>
			<g id="shape6-18" v:mID="6" v:groupContext="shape">
				<title>工作表.6</title>
				<ellipse cx="7.10156" cy="142.898" rx="7.10156" ry="7.10156" class="st3"/>
			</g>
		</g>
	</g>
</svg>
