<?xml version="1.0" encoding="UTF-8"?>
<svg id="_图层_1" xmlns="http://www.w3.org/2000/svg" xmlns:v="http://schemas.microsoft.com/visio/2003/SVGExtensions/" xmlns:ev="http://www.w3.org/2001/xml-events" version="1.1" viewBox="0 0 150 150">
  <!-- Generator: Adobe Illustrator 29.0.1, SVG Export Plug-In . SVG Version: 2.1.0 Build 192)  -->
  <defs>
    <style>
      .st0 {
        fill-rule: evenodd;
        stroke-miterlimit: 10;
        stroke-width: 4px;
      }

      .st0, .st1, .st2 {
        stroke: #fff;
      }

      .st0, .st2 {
        fill: #0070c0;
      }

      .st1 {
        fill: none;
      }

      .st1, .st2 {
        stroke-linecap: round;
        stroke-linejoin: round;
        stroke-width: 4.5px;
      }
    </style>
  </defs>
  <v:documentProperties v:langID="2052" v:viewMarkup="false"/>
  <v:pageProperties v:drawingScale="1" v:drawingUnits="19" v:pageScale="1" v:shadowOffsetX="9" v:shadowOffsetY="-9"/>
  <path class="st0" d="M140.1,59.9c-.8-5-3.2-9.2-7.2-11.8-1.9-1.1-2.6-3-3.6-5.3l-.4-1c-2.8-6.3-7.9-10.7-14.8-12.4-1.3-.4-2.3-1-3.2-2.3-4-5-9.7-7.3-16.3-6.5-1.3.2-1.7,0-2.1-.2-2.5-1.5-4.9-2.1-7.4-2.7l-.9-.2h-4.2l-.6.2-1.7.6c-1.3.4-2.8.8-4.4,1.5l-.4-.2c-8.7-2.7-16.6-.8-23.6,5.3l-.2.2c-6-1-11.7,1.3-16.3,6.5-.2.4-.4.4-.6.4-8.1,1.5-13.8,6.5-16.3,14.7-.8,2.5-1.7,4.2-3,5.9-1.9,2.5-3.2,5.3-4,8.6,0,.4-.2.6-.2,1-.2.6-.4,1.3-.6,2.1-.4,2.5-.4,5,0,7.4,0,.6.2,1.1.4,1.5,0,.1,0,.3.2.4,2.8,11.5,10.2,18.5,21.4,20.8,1.9.4,3.8.4,5.5.4h2.5c3,.2,3.4.6,4,1.7.6,1.3,1.3,2.5,2.1,3.2l.2.2c4.9,6.1,11.9,9.3,20.4,9.3s14.4,6.9,16.1,12.4c.4,1.1.4,2.5.6,3.8,0,1.5.2,3.2.8,5l.6,1.9h22.9l-.4-3.1c-.2-1-.2-1.9-.4-2.7v-.4c-.2-2.1-.6-4.6-.9-6.9,10.2-1,17.6-6.5,22.1-16,1.1-2.3,1.7-5,2.1-8v-.2c6.6-3.4,10.4-8.8,11.1-15.1,1.3-7.2,1.3-13.9.6-20.2v.2Z"/>
  <path class="st1" d="M66,43.9h15.7c2.5,0,4.5,2,4.5,4.5v30.9c0,2.5-2,4.5-4.5,4.5h-10.6"/>
  <path class="st1" d="M45.4,69.8h21.3c2.5,0,4.5,2,4.5,4.5v19"/>
  <path class="st1" d="M86.3,61.1h20.9"/>
  <circle class="st2" cx="66" cy="43.9" r="7.1"/>
  <circle class="st2" cx="107.2" cy="61.1" r="7.1"/>
  <circle class="st2" cx="45.4" cy="69.8" r="7.1"/>
</svg>